<svg width="371" height="109" viewBox="0 0 371 109" fill="none" xmlns="http://www.w3.org/2000/svg">
<path fill-rule="evenodd" clip-rule="evenodd" d="M370.801 0.000999451V108.904L347.541 108.915V93.381H315.745V36.338H291.245V108.915H268.671C270.505 107.68 272.241 106.286 273.845 104.715C277.579 100.997 279.445 97.496 281.424 93.776L260.548 83.712C259.669 86.335 256.263 96.403 244.833 96.403C232.747 96.403 228.458 85.569 228.458 74.086C228.458 71.018 228.458 62.265 234.282 56.688C235.931 55.047 239.337 52.53 244.72 52.53C255.05 52.53 258.784 60.733 260.766 65.331L281.312 55.154C279.666 52.092 278.127 49.467 274.829 46.077C266.696 37.761 255.489 33.601 243.731 33.601C217.472 33.601 203.514 54.717 203.514 75.504C203.514 88.121 208.614 101.13 219.463 108.914H182.604C183.641 108.17 184.604 107.391 185.475 106.574C194.594 97.932 194.594 86.442 194.594 77.584V36.447H169.87V84.695C169.87 87.978 169.76 91.368 166.906 94.103C165.477 95.412 162.947 96.837 159.101 96.837C156.246 96.837 153.277 96.073 151.301 93.992C148.556 91.368 148.443 87.978 148.443 84.695V36.447H123.829V82.397C124.049 90.494 124.157 99.135 131.851 106.574C132.714 107.4 133.68 108.178 134.72 108.914L0 108.915V0H370.8L370.801 0.000999451ZM110.007 55.868H110.594L110.667 55.811L110.866 54.721C110.98 54.508 111.201 54.538 111.201 54.538L111.196 54.537L111.229 54.538L111.413 53.859L111.365 53.784L98.105 50.935C98.105 50.935 84.876 53.778 84.85 53.784L84.803 53.859L84.986 54.538L85.023 54.537L85.018 54.538C85.018 54.538 85.223 54.512 85.343 54.701L85.541 55.791C85.541 55.791 85.546 55.868 85.624 55.868H86.207V56.188L86.235 56.218L86.322 56.219L86.364 56.299C86.364 56.35 86.387 56.61 86.572 56.769C86.595 56.792 86.586 56.857 86.534 56.857H86.47L86.437 56.913L86.456 57.074V57.221L86.487 57.269H86.517L86.538 57.291V64.728L86.432 64.837L86.42 64.864V64.989L86.413 65.016L86.383 65.025H86.29L86.26 65.056V66.019H85.218V67.794H84.174V69.589L112.046 69.591V67.798H111V66.021H109.962V65.245H109.96V65.057L109.932 65.026H109.839L109.811 65.017L109.802 64.99V64.865L109.79 64.838L109.682 64.729V57.292L109.702 57.27H109.729L109.76 57.222V57.075L109.782 56.914L109.746 56.858H109.687C109.63 56.858 109.623 56.794 109.646 56.77C109.831 56.619 109.851 56.357 109.851 56.305L109.899 56.22L109.982 56.219L110.009 56.189V55.869L110.007 55.868ZM90.554 55.868V56.188L90.584 56.218L90.667 56.219L90.711 56.299C90.711 56.35 90.736 56.61 90.919 56.769C90.944 56.792 90.934 56.857 90.878 56.857H90.816L90.78 56.913L90.801 57.074V57.221L90.833 57.269H90.861L90.882 57.291V64.728L90.776 64.837L90.764 64.864V64.989L90.754 65.016L90.726 65.025H90.636L90.604 65.056V65.244H88.231V65.056L88.203 65.025H88.108L88.081 65.016L88.072 64.989V64.864L88.062 64.837L87.953 64.728V57.291L87.972 57.269H87.998L88.031 57.221V57.074L88.056 56.913L88.019 56.857H87.958C87.897 56.857 87.894 56.793 87.918 56.769C88.102 56.618 88.121 56.356 88.121 56.304L88.168 56.219L88.253 56.218L88.283 56.188V55.868H90.555H90.554ZM94.901 55.868V56.188L94.927 56.218L95.014 56.219L95.056 56.299C95.056 56.35 95.079 56.61 95.264 56.769C95.289 56.792 95.278 56.857 95.224 56.857H95.163L95.126 56.913L95.148 57.074V57.221L95.179 57.269H95.207L95.228 57.291V64.728L95.119 64.837L95.109 64.864V64.989L95.1 65.016L95.07 65.025H94.977L94.949 65.056V65.244H92.573V65.056L92.546 65.025H92.451L92.425 65.016L92.415 64.989V64.864L92.403 64.837L92.294 64.728V57.291L92.315 57.269H92.341L92.373 57.221V57.074L92.396 56.913L92.36 56.857H92.298C92.24 56.857 92.232 56.793 92.26 56.769C92.445 56.618 92.465 56.356 92.465 56.304L92.509 56.219L92.594 56.218L92.624 56.188V55.868H94.898H94.901ZM99.244 55.868V56.188L99.272 56.218L99.36 56.219L99.401 56.299C99.401 56.35 99.426 56.61 99.609 56.769C99.632 56.792 99.623 56.857 99.571 56.857H99.509L99.473 56.913L99.494 57.074V57.221L99.521 57.269H99.553L99.575 57.291V64.728L99.465 64.837L99.453 64.864V64.989L99.446 65.016L99.419 65.025H99.326L99.296 65.056V65.244H96.919V65.056L96.892 65.025H96.798L96.77 65.016L96.763 64.989V64.864L96.751 64.837L96.645 64.728V57.319L96.644 57.291L96.664 57.269H96.694L96.722 57.221V57.074L96.745 56.913L96.709 56.857H96.648C96.59 56.857 96.582 56.793 96.608 56.769C96.795 56.618 96.813 56.356 96.813 56.304L96.857 56.219L96.944 56.218L96.972 56.188V55.868H99.244ZM103.59 55.868V56.188L103.618 56.218L103.706 56.219L103.748 56.299C103.748 56.35 103.77 56.61 103.952 56.769C103.978 56.792 103.968 56.857 103.916 56.857H103.854L103.816 56.913L103.838 57.074V57.221L103.868 57.269H103.898L103.919 57.291L103.921 57.319V64.728L103.811 64.837L103.8 64.864V64.989L103.79 65.016L103.763 65.025H103.669L103.643 65.056V65.244H101.266V65.056L101.238 65.025H101.145L101.115 65.016L101.106 64.989V64.864L101.096 64.837L100.986 64.728V57.291L101.008 57.269H101.031L101.063 57.221V57.074L101.088 56.913L101.053 56.857H100.99C100.933 56.857 100.926 56.793 100.955 56.769C101.138 56.618 101.154 56.356 101.154 56.304L101.202 56.219L101.287 56.218L101.314 56.188V55.868H103.587H103.59ZM107.933 55.868V56.188L107.965 56.218L108.05 56.219L108.092 56.299C108.092 56.35 108.114 56.61 108.297 56.769C108.324 56.792 108.317 56.857 108.26 56.857H108.197L108.165 56.913L108.185 57.074V57.221L108.215 57.269H108.246L108.266 57.291V64.728L108.158 64.837L108.146 64.864V64.989L108.136 65.016L108.108 65.025H108.015L107.984 65.056V65.244H105.612V65.056L105.584 65.025H105.49L105.463 65.016L105.453 64.989V64.864L105.441 64.837L105.333 64.728V57.291L105.355 57.269H105.382L105.409 57.221V57.074L105.435 56.913L105.397 56.857H105.338C105.281 56.857 105.275 56.793 105.3 56.769C105.485 56.618 105.505 56.356 105.505 56.304L105.551 56.219L105.638 56.218L105.665 56.188V55.868H107.934H107.933ZM98.113 36.992C98.113 36.992 97.982 37.17 97.982 37.213V37.309L98.013 37.349C98.049 37.349 98.059 37.418 97.994 37.418C97.924 37.418 97.894 37.479 97.894 37.508L97.892 37.562C97.892 37.604 97.637 37.892 97.384 38.092L97.294 38.138H97.217L97.182 38.173V38.316L97.217 38.352H97.278L97.325 38.458L97.284 38.567H97.217L97.182 38.602V38.744L97.217 38.78H97.222L97.239 38.782L97.312 38.825V40.308C97.27 40.329 97.212 40.369 97.212 40.44V40.561C97.212 40.591 97.187 40.64 97.132 40.64H96.906L96.823 40.713V40.955L96.885 41.007C97 41.003 97.078 41.037 97.078 41.121L97.076 41.212C97.076 41.29 96.998 41.324 96.912 41.354C96.745 41.412 96.364 41.513 96.355 41.782C95.725 42.075 94.583 42.702 93.762 43.938C92.709 45.378 92.809 47.365 92.799 47.647C92.797 47.705 92.755 47.741 92.709 47.741H92.588L92.535 47.787V47.993L92.483 48.044H92.277L92.225 48.101V48.325L92.167 48.371H91.959L91.902 48.429V48.669L91.938 48.704C92 48.713 92.126 48.77 92.126 48.907C92.126 49.141 92.269 49.163 92.326 49.163V50.029C92.326 50.23 92.169 50.31 92.08 50.331L92.038 50.379V51.27L98.115 49.929H98.124L104.203 51.27V50.379L104.157 50.331C104.068 50.31 103.914 50.231 103.914 50.029V49.163C103.971 49.163 104.115 49.141 104.115 48.907C104.115 48.77 104.24 48.713 104.3 48.704L104.337 48.669V48.429L104.278 48.371H104.07L104.018 48.325V48.101L103.961 48.044H103.758L103.704 47.993V47.787L103.652 47.741H103.53C103.488 47.741 103.442 47.705 103.44 47.647C103.433 47.365 103.53 45.378 102.481 43.938C101.654 42.702 100.516 42.075 99.888 41.782C99.876 41.514 99.494 41.412 99.328 41.354C99.239 41.324 99.164 41.29 99.164 41.212L99.162 41.121C99.162 41.037 99.239 41.004 99.352 41.007L99.414 40.955V40.713L99.334 40.64H99.107C99.053 40.64 99.027 40.591 99.027 40.561V40.44C99.027 40.368 98.973 40.329 98.929 40.308V38.825L98.999 38.782L99.016 38.78H99.021L99.057 38.744V38.602L99.021 38.567H98.954L98.913 38.458L98.964 38.352H99.021L99.057 38.316V38.173L99.021 38.138H98.944L98.854 38.092C98.602 37.892 98.347 37.604 98.347 37.562V37.508C98.347 37.478 98.316 37.418 98.247 37.418C98.18 37.418 98.189 37.349 98.225 37.349L98.255 37.309V37.213C98.255 37.17 98.125 36.992 98.125 36.992H98.116H98.113Z" fill="#A3A6A8"/>
</svg>
